<svg version="1.1" id="Layer_1" xmlns="http://www.w3.org/2000/svg" xmlns:xlink="http://www.w3.org/1999/xlink" x="0px" y="0px"
	 width="100%" viewBox="0 0 928 180" enable-background="new 0 0 928 180" xml:space="preserve">
<path fill="#FFFFFF" opacity="1.000000" stroke="none" 
	d="
M725.000000,181.000000 
	C483.666656,181.000000 242.333328,181.000000 1.000000,181.000000 
	C1.000000,163.250809 1.000000,145.594070 1.355913,127.648331 
	C4.669198,144.893738 12.507615,159.329437 27.706114,169.370941 
	C40.835831,178.045624 54.964386,179.400101 69.523842,174.788345 
	C75.068947,173.031921 79.888870,168.986038 85.220322,165.878052 
	C85.178131,165.822693 85.628204,166.308121 85.960167,166.864075 
	C93.017876,178.683884 108.962074,179.441467 115.359062,169.766083 
	C118.223091,165.434265 119.705620,159.434067 119.800278,154.154861 
	C120.248215,129.175812 120.044540,104.184090 119.955597,79.197311 
	C119.941025,75.103203 119.342949,71.010910 119.008408,66.918274 
	C118.043365,55.112202 106.455193,49.077133 96.424828,53.045006 
	C91.977913,54.804134 88.291008,58.484489 84.061302,61.430508 
	C75.835167,52.383564 64.849632,49.921936 52.295341,50.899620 
	C29.884691,52.644871 15.812533,65.289032 6.818125,84.678528 
	C4.270618,90.170250 2.906723,96.211029 1.000000,102.000000 
	C1.000000,68.365585 1.000000,34.731171 1.000000,1.000000 
	C119.354210,1.000000 237.708450,1.000000 356.378296,1.341295 
	C348.655548,2.110368 343.027527,11.412960 343.018921,20.543926 
	C342.976807,65.191528 342.979889,109.839218 343.043701,154.486771 
	C343.048096,157.576462 343.362854,160.739777 344.075348,163.740173 
	C346.028320,171.964615 351.335083,175.506256 359.560150,176.134369 
	C368.182068,176.792816 373.354309,172.223511 377.933350,165.877289 
	C379.743683,167.345139 381.293915,168.814026 383.042908,169.986282 
	C395.746613,178.500916 409.388092,178.814392 423.425720,174.198959 
	C444.465912,167.281174 460.533905,143.737213 461.922729,120.706413 
	C463.058411,101.873695 459.157654,84.518097 447.212158,69.003242 
	C436.644348,55.277721 413.808868,45.849159 397.085022,50.559242 
	C390.869690,52.309727 385.015564,55.342598 379.000000,57.789341 
	C379.000000,46.724552 378.978943,35.397758 379.006104,24.071083 
	C379.031433,13.516054 375.974304,4.862753 365.000000,1.000000 
	C451.354218,1.000000 537.708435,1.000000 624.384644,1.332594 
	C618.412170,3.158437 614.161987,6.752723 612.903015,13.316033 
	C612.200378,16.979177 611.093201,20.666040 611.081909,24.345011 
	C610.953064,66.462891 610.973083,108.581367 611.044434,150.699524 
	C611.051086,154.611572 611.380554,158.577103 612.078491,162.423737 
	C614.096436,173.545975 626.830811,179.911713 637.053650,174.979050 
	C644.934998,171.176102 646.887451,163.850159 646.916870,156.141769 
	C647.087097,111.527008 647.032410,66.911217 646.974304,22.295879 
	C646.961731,12.666835 643.593994,4.887264 634.000000,1.000000 
	C732.220032,1.000000 830.440002,1.000000 929.000000,1.000000 
	C929.000000,29.019978 929.000000,57.041332 928.651978,85.349091 
	C926.741577,74.132034 921.551636,64.441681 911.901917,58.119400 
	C899.749268,50.157284 885.912598,49.157894 872.161499,52.616467 
	C865.580688,54.271599 859.599365,58.309891 854.005676,60.956909 
	C850.667847,58.368496 847.605957,54.554096 843.698730,53.225334 
	C830.238098,48.647564 819.670837,55.469730 819.239136,70.635262 
	C818.419312,99.434486 818.245972,128.301300 819.301575,157.085129 
	C819.878235,172.811295 827.900696,178.763809 844.101685,175.057938 
	C850.438171,173.608490 854.963806,164.323410 854.986816,156.986298 
	C855.032166,142.491882 854.812561,127.993584 855.091492,113.504379 
	C855.204468,107.636292 855.975342,101.718552 857.086975,95.946671 
	C858.739136,87.367691 865.958923,81.409744 874.219116,82.283112 
	C882.645569,83.174065 888.848755,85.192581 890.974060,95.789406 
	C892.000305,100.906670 892.813843,106.151772 892.910095,111.354034 
	C893.171936,125.510559 892.883423,139.676743 893.081909,153.835327 
	C893.131470,157.372253 893.835327,161.003540 894.859863,164.404236 
	C898.175537,175.409760 911.044678,180.504898 920.314148,173.746506 
	C924.227173,170.893570 926.164612,165.330963 929.000000,161.000000 
	C929.000000,167.652756 929.000000,174.305496 929.000000,181.000000 
	C865.979126,181.000000 802.958191,181.000000 739.660461,180.644470 
	C741.032959,180.153168 742.738037,180.241806 744.323364,179.848175 
	C770.575684,173.329727 787.657471,157.344086 794.573730,130.945389 
	C797.179871,120.997795 791.300781,110.604370 781.509705,108.279106 
	C772.153381,106.057121 761.434021,112.100662 759.773621,121.870255 
	C758.451782,129.647583 754.195801,136.139420 747.119446,140.357117 
	C737.508972,146.085129 727.792480,146.874603 717.760742,141.357971 
	C708.084961,136.037094 703.346313,127.668259 703.075317,116.933739 
	C702.737244,103.539780 710.424866,93.440453 724.163879,88.973999 
	C734.251404,85.694618 738.858459,78.809502 738.040283,68.742943 
	C737.314575,59.813679 726.911560,51.203381 718.636108,53.180580 
	C703.950500,56.689331 691.365051,63.470261 681.738037,75.622963 
	C667.899170,93.092453 663.584412,112.699150 669.498474,133.778946 
	C675.976746,156.869843 691.760315,171.765396 714.710022,178.850677 
	C718.043457,179.879837 721.565308,180.298706 725.000000,181.000000 
M514.897766,76.443329 
	C514.609436,76.253250 514.321106,76.063171 514.005493,74.987114 
	C514.003479,73.321480 514.457703,71.487328 513.916199,70.020927 
	C512.090149,65.076279 511.130890,58.960743 507.616058,55.664700 
	C499.898071,48.427166 482.455292,50.617687 479.877289,64.304756 
	C479.367859,67.009415 478.070892,69.676285 478.092255,72.352959 
	C478.268555,94.435883 477.811371,116.575256 479.303802,138.578308 
	C480.307739,153.379059 488.364197,165.432510 502.195221,171.905502 
	C521.244080,180.820435 540.894165,180.458420 560.442932,173.124817 
	C568.415588,170.133911 574.289795,164.456482 578.867676,157.410797 
	C585.056091,147.886246 586.673157,137.058090 586.914001,126.080963 
	C587.257324,110.431671 587.169922,94.766396 586.907776,79.113968 
	C586.818115,73.755844 586.043396,68.327995 584.877930,63.088562 
	C583.223145,55.649715 576.948975,51.943382 567.361572,52.000057 
	C559.654053,52.045624 553.608582,56.231289 552.126587,63.304840 
	C550.990112,68.728470 550.197083,74.315872 550.093262,79.846237 
	C549.818237,94.498535 550.262695,109.166245 549.880981,123.813751 
	C549.708557,130.428619 548.841003,137.415100 542.179688,141.256180 
	C530.312073,148.099365 514.999084,142.815063 514.993713,124.936638 
	C514.988953,108.949837 514.924622,92.963043 514.897766,76.443329 
M283.993256,154.029587 
	C283.995331,155.695908 283.835449,157.380859 284.024414,159.025711 
	C286.010468,176.313248 299.450226,179.789139 311.239594,173.683273 
	C318.499634,169.923218 319.838379,161.735779 319.857819,154.358093 
	C319.917419,131.766144 319.543274,109.166512 318.896637,86.582504 
	C318.641266,77.663849 314.327271,70.081337 308.742126,63.211170 
	C297.777100,49.723373 274.190063,48.232533 259.333557,55.472843 
	C253.300873,58.412865 248.060577,62.978794 242.462479,66.803040 
	C231.435486,52.256687 202.168106,42.832840 179.429016,61.574108 
	C176.716949,58.987465 174.295456,56.002216 171.255997,53.918308 
	C164.720169,49.437222 153.223587,49.949791 148.920151,57.730495 
	C146.267944,62.525780 144.313171,68.380608 144.213760,73.799507 
	C143.736969,99.785980 143.958176,125.786171 144.046310,151.781097 
	C144.059067,155.543228 144.343674,159.377213 145.118591,163.047882 
	C146.473770,169.467300 152.310196,175.652969 157.717468,175.927780 
	C166.247787,176.361313 174.050751,176.657883 177.379791,166.984283 
	C178.893051,162.586990 179.191620,157.771667 180.558807,152.968903 
	C180.676468,152.652802 180.794128,152.336700 181.018265,151.086044 
	C180.962372,137.046768 180.906479,123.007507 180.944229,108.501785 
	C180.944229,108.501785 180.832031,108.039452 180.971619,107.133003 
	C181.324707,103.211823 181.261002,99.196983 182.116653,95.388718 
	C183.965500,87.160042 189.714005,82.909431 198.034180,83.000450 
	C205.234665,83.079224 210.533279,87.428329 211.903076,95.659058 
	C213.137009,103.073616 213.734955,110.650146 213.913284,118.171837 
	C214.225082,131.322891 213.709808,144.495682 214.117188,157.641525 
	C214.334534,164.655380 216.528580,171.733765 223.596481,174.609543 
	C229.837448,177.148880 236.849213,177.647217 242.811203,173.005737 
	C248.440384,168.623352 249.799225,162.128708 249.916840,155.568954 
	C250.182526,140.749619 249.815048,125.918793 250.093887,111.099945 
	C250.200851,105.414825 250.854401,99.625557 252.190704,94.109482 
	C253.587784,88.342514 257.686859,84.309227 263.709320,83.256584 
	C269.029144,82.326736 274.890869,82.324333 277.859711,87.655304 
	C280.376526,92.174522 282.577911,97.508240 282.772827,102.564262 
	C283.407501,119.028542 283.058716,135.530731 283.069519,152.566376 
	C283.366516,152.759979 283.663513,152.953583 283.993256,154.029587 
M755.117615,54.335842 
	C754.678955,54.538258 754.233459,54.929855 753.802673,54.914295 
	C748.597168,54.726265 744.985229,57.742798 743.676697,62.051064 
	C742.240784,66.778862 741.559143,72.131638 745.864990,76.383827 
	C750.511841,80.972641 755.949463,81.869202 762.977417,79.852310 
	C763.330322,82.790398 763.884033,85.573280 763.955933,88.368561 
	C764.120178,94.754120 768.066284,99.427956 774.861389,100.920174 
	C779.918884,102.030800 786.170654,98.816483 788.072449,93.342110 
	C789.533508,89.136375 789.960999,84.571579 790.881592,80.000069 
	C792.797485,80.000069 794.793518,80.053719 796.785889,79.990585 
	C804.487732,79.746513 810.183289,73.721077 809.999817,66.054283 
	C809.836792,59.239670 804.022461,54.005642 796.608582,54.000698 
	C794.175720,53.999073 791.742920,54.000443 790.079285,54.000443 
	C788.943665,48.827892 788.486572,44.223351 786.873779,40.067249 
	C785.043091,35.349461 780.207214,32.887829 775.759460,33.255386 
	C763.184265,34.294590 762.047668,43.724884 763.110413,54.030090 
	C760.234192,54.030090 758.090332,54.030090 755.117615,54.335842 
z"/>
<path fill="#727376" opacity="1.000000" stroke="none" 
	d="
M364.555847,1.000000 
	C375.974304,4.862753 379.031433,13.516054 379.006104,24.071083 
	C378.978943,35.397758 379.000000,46.724552 379.000000,57.789341 
	C385.015564,55.342598 390.869690,52.309727 397.085022,50.559242 
	C413.808868,45.849159 436.644348,55.277721 447.212158,69.003242 
	C459.157654,84.518097 463.058411,101.873695 461.922729,120.706413 
	C460.533905,143.737213 444.465912,167.281174 423.425720,174.198959 
	C409.388092,178.814392 395.746613,178.500916 383.042908,169.986282 
	C381.293915,168.814026 379.743683,167.345139 377.933350,165.877289 
	C373.354309,172.223511 368.182068,176.792816 359.560150,176.134369 
	C351.335083,175.506256 346.028320,171.964615 344.075348,163.740173 
	C343.362854,160.739777 343.048096,157.576462 343.043701,154.486771 
	C342.979889,109.839218 342.976807,65.191528 343.018921,20.543926 
	C343.027527,11.412960 348.655548,2.110368 356.846985,1.341295 
	C359.370575,1.000000 361.741119,1.000000 364.555847,1.000000 
M383.433411,94.097183 
	C377.761902,104.845573 377.453613,115.982567 381.004608,127.405815 
	C383.446564,135.261337 391.593719,142.520538 400.602234,142.964355 
	C408.705750,143.363571 417.253143,138.247040 421.092346,129.444870 
	C426.031372,118.121056 426.217804,106.909088 420.360840,95.652580 
	C416.990173,89.174469 412.133423,84.956573 405.011169,84.092812 
	C396.281891,83.034119 388.814514,85.608620 383.433411,94.097183 
z"/>
<path fill="#727376" opacity="1.000000" stroke="none" 
	d="
M1.000000,102.468651 
	C2.906723,96.211029 4.270618,90.170250 6.818125,84.678528 
	C15.812533,65.289032 29.884691,52.644871 52.295341,50.899620 
	C64.849632,49.921936 75.835167,52.383564 84.061302,61.430508 
	C88.291008,58.484489 91.977913,54.804134 96.424828,53.045006 
	C106.455193,49.077133 118.043365,55.112202 119.008408,66.918274 
	C119.342949,71.010910 119.941025,75.103203 119.955597,79.197311 
	C120.044540,104.184090 120.248215,129.175812 119.800278,154.154861 
	C119.705620,159.434067 118.223091,165.434265 115.359062,169.766083 
	C108.962074,179.441467 93.017876,178.683884 85.960167,166.864075 
	C85.628204,166.308121 85.178131,165.822693 85.220322,165.878052 
	C79.888870,168.986038 75.068947,173.031921 69.523842,174.788345 
	C54.964386,179.400101 40.835831,178.045624 27.706114,169.370941 
	C12.507615,159.329437 4.669198,144.893738 1.355913,127.179672 
	C1.000000,118.979103 1.000000,110.958199 1.000000,102.468651 
M68.815781,140.657745 
	C70.727531,139.418579 72.837753,138.402069 74.518562,136.903824 
	C84.821732,127.719727 85.509956,107.474998 79.441032,97.068329 
	C74.769150,89.057220 67.841385,84.853256 58.123856,85.954178 
	C49.789955,86.898346 44.735744,92.020317 41.622482,99.029930 
	C36.652214,110.220657 37.417492,121.587578 43.189873,132.242462 
	C47.792023,140.737305 59.016315,144.298340 68.815781,140.657745 
z"/>
<path fill="#8EC74A" opacity="1.000000" stroke="none" 
	d="
M929.000000,160.531342 
	C926.164612,165.330963 924.227173,170.893570 920.314148,173.746506 
	C911.044678,180.504898 898.175537,175.409760 894.859863,164.404236 
	C893.835327,161.003540 893.131470,157.372253 893.081909,153.835327 
	C892.883423,139.676743 893.171936,125.510559 892.910095,111.354034 
	C892.813843,106.151772 892.000305,100.906670 890.974060,95.789406 
	C888.848755,85.192581 882.645569,83.174065 874.219116,82.283112 
	C865.958923,81.409744 858.739136,87.367691 857.086975,95.946671 
	C855.975342,101.718552 855.204468,107.636292 855.091492,113.504379 
	C854.812561,127.993584 855.032166,142.491882 854.986816,156.986298 
	C854.963806,164.323410 850.438171,173.608490 844.101685,175.057938 
	C827.900696,178.763809 819.878235,172.811295 819.301575,157.085129 
	C818.245972,128.301300 818.419312,99.434486 819.239136,70.635262 
	C819.670837,55.469730 830.238098,48.647564 843.698730,53.225334 
	C847.605957,54.554096 850.667847,58.368496 854.005676,60.956909 
	C859.599365,58.309891 865.580688,54.271599 872.161499,52.616467 
	C885.912598,49.157894 899.749268,50.157284 911.901917,58.119400 
	C921.551636,64.441681 926.741577,74.132034 928.651978,85.817749 
	C929.000000,110.687561 929.000000,135.375122 929.000000,160.531342 
z"/>
<path fill="#8EC74A" opacity="1.000000" stroke="none" 
	d="
M725.464661,181.000000 
	C721.565308,180.298706 718.043457,179.879837 714.710022,178.850677 
	C691.760315,171.765396 675.976746,156.869843 669.498474,133.778946 
	C663.584412,112.699150 667.899170,93.092453 681.738037,75.622963 
	C691.365051,63.470261 703.950500,56.689331 718.636108,53.180580 
	C726.911560,51.203381 737.314575,59.813679 738.040283,68.742943 
	C738.858459,78.809502 734.251404,85.694618 724.163879,88.973999 
	C710.424866,93.440453 702.737244,103.539780 703.075317,116.933739 
	C703.346313,127.668259 708.084961,136.037094 717.760742,141.357971 
	C727.792480,146.874603 737.508972,146.085129 747.119446,140.357117 
	C754.195801,136.139420 758.451782,129.647583 759.773621,121.870255 
	C761.434021,112.100662 772.153381,106.057121 781.509705,108.279106 
	C791.300781,110.604370 797.179871,120.997795 794.573730,130.945389 
	C787.657471,157.344086 770.575684,173.329727 744.323364,179.848175 
	C742.738037,180.241806 741.032959,180.153168 739.191772,180.644470 
	C734.643127,181.000000 730.286194,181.000000 725.464661,181.000000 
z"/>
<path fill="#727376" opacity="1.000000" stroke="none" 
	d="
M633.550049,1.000000 
	C643.593994,4.887264 646.961731,12.666835 646.974304,22.295879 
	C647.032410,66.911217 647.087097,111.527008 646.916870,156.141769 
	C646.887451,163.850159 644.934998,171.176102 637.053650,174.979050 
	C626.830811,179.911713 614.096436,173.545975 612.078491,162.423737 
	C611.380554,158.577103 611.051086,154.611572 611.044434,150.699524 
	C610.973083,108.581367 610.953064,66.462891 611.081909,24.345011 
	C611.093201,20.666040 612.200378,16.979177 612.903015,13.316033 
	C614.161987,6.752723 618.412170,3.158437 624.853271,1.332594 
	C627.700012,1.000000 630.400024,1.000000 633.550049,1.000000 
z"/>
<path fill="#727376" opacity="1.000000" stroke="none" 
	d="
M180.850586,108.968239 
	C180.906479,123.007507 180.962372,137.046768 180.749039,151.676880 
	C180.235626,152.511520 180.089417,152.804276 180.041183,153.145966 
	C179.191620,157.771667 178.893051,162.586990 177.379791,166.984283 
	C174.050751,176.657883 166.247787,176.361313 157.717468,175.927780 
	C152.310196,175.652969 146.473770,169.467300 145.118591,163.047882 
	C144.343674,159.377213 144.059067,155.543228 144.046310,151.781097 
	C143.958176,125.786171 143.736969,99.785980 144.213760,73.799507 
	C144.313171,68.380608 146.267944,62.525780 148.920151,57.730495 
	C153.223587,49.949791 164.720169,49.437222 171.255997,53.918308 
	C174.295456,56.002216 176.716949,58.987465 179.429016,61.574108 
	C202.168106,42.832840 231.435486,52.256687 242.462479,66.803040 
	C248.060577,62.978794 253.300873,58.412865 259.333557,55.472843 
	C274.190063,48.232533 297.777100,49.723373 308.742126,63.211170 
	C314.327271,70.081337 318.641266,77.663849 318.896637,86.582504 
	C319.543274,109.166512 319.917419,131.766144 319.857819,154.358093 
	C319.838379,161.735779 318.499634,169.923218 311.239594,173.683273 
	C299.450226,179.789139 286.010468,176.313248 284.024414,159.025711 
	C283.835449,157.380859 283.995331,155.695908 283.903595,153.349823 
	C283.664764,152.349640 283.422913,152.132401 283.088379,152.018326 
	C283.058716,135.530731 283.407501,119.028542 282.772827,102.564262 
	C282.577911,97.508240 280.376526,92.174522 277.859711,87.655304 
	C274.890869,82.324333 269.029144,82.326736 263.709320,83.256584 
	C257.686859,84.309227 253.587784,88.342514 252.190704,94.109482 
	C250.854401,99.625557 250.200851,105.414825 250.093887,111.099945 
	C249.815048,125.918793 250.182526,140.749619 249.916840,155.568954 
	C249.799225,162.128708 248.440384,168.623352 242.811203,173.005737 
	C236.849213,177.647217 229.837448,177.148880 223.596481,174.609543 
	C216.528580,171.733765 214.334534,164.655380 214.117188,157.641525 
	C213.709808,144.495682 214.225082,131.322891 213.913284,118.171837 
	C213.734955,110.650146 213.137009,103.073616 211.903076,95.659058 
	C210.533279,87.428329 205.234665,83.079224 198.034180,83.000450 
	C189.714005,82.909431 183.965500,87.160042 182.116653,95.388718 
	C181.261002,99.196983 181.324707,103.211823 180.759796,107.674278 
	C180.357651,108.553291 180.458527,108.804184 180.850586,108.968239 
z"/>
<path fill="#727376" opacity="1.000000" stroke="none" 
	d="
M514.886597,76.976250 
	C514.924622,92.963043 514.988953,108.949837 514.993713,124.936638 
	C514.999084,142.815063 530.312073,148.099365 542.179688,141.256180 
	C548.841003,137.415100 549.708557,130.428619 549.880981,123.813751 
	C550.262695,109.166245 549.818237,94.498535 550.093262,79.846237 
	C550.197083,74.315872 550.990112,68.728470 552.126587,63.304840 
	C553.608582,56.231289 559.654053,52.045624 567.361572,52.000057 
	C576.948975,51.943382 583.223145,55.649715 584.877930,63.088562 
	C586.043396,68.327995 586.818115,73.755844 586.907776,79.113968 
	C587.169922,94.766396 587.257324,110.431671 586.914001,126.080963 
	C586.673157,137.058090 585.056091,147.886246 578.867676,157.410797 
	C574.289795,164.456482 568.415588,170.133911 560.442932,173.124817 
	C540.894165,180.458420 521.244080,180.820435 502.195221,171.905502 
	C488.364197,165.432510 480.307739,153.379059 479.303802,138.578308 
	C477.811371,116.575256 478.268555,94.435883 478.092255,72.352959 
	C478.070892,69.676285 479.367859,67.009415 479.877289,64.304756 
	C482.455292,50.617687 499.898071,48.427166 507.616058,55.664700 
	C511.130890,58.960743 512.090149,65.076279 513.916199,70.020927 
	C514.457703,71.487328 514.003479,73.321480 514.094971,75.660843 
	C514.332214,76.642838 514.566284,76.856728 514.886597,76.976250 
z"/>
<path fill="#727376" opacity="1.000000" stroke="none" 
	d="
M755.532043,54.182968 
	C758.090332,54.030090 760.234192,54.030090 763.110413,54.030090 
	C762.047668,43.724884 763.184265,34.294590 775.759460,33.255386 
	C780.207214,32.887829 785.043091,35.349461 786.873779,40.067249 
	C788.486572,44.223351 788.943665,48.827892 790.079285,54.000443 
	C791.742920,54.000443 794.175720,53.999073 796.608582,54.000698 
	C804.022461,54.005642 809.836792,59.239670 809.999817,66.054283 
	C810.183289,73.721077 804.487732,79.746513 796.785889,79.990585 
	C794.793518,80.053719 792.797485,80.000069 790.881592,80.000069 
	C789.960999,84.571579 789.533508,89.136375 788.072449,93.342110 
	C786.170654,98.816483 779.918884,102.030800 774.861389,100.920174 
	C768.066284,99.427956 764.120178,94.754120 763.955933,88.368561 
	C763.884033,85.573280 763.330322,82.790398 762.977417,79.852310 
	C755.949463,81.869202 750.511841,80.972641 745.864990,76.383827 
	C741.559143,72.131638 742.240784,66.778862 743.676697,62.051064 
	C744.985229,57.742798 748.597168,54.726265 753.802673,54.914295 
	C754.233459,54.929855 754.678955,54.538258 755.532043,54.182968 
z"/>
<path fill="#6A6A6A" opacity="1.000000" stroke="none" 
	d="
M514.892212,76.709793 
	C514.566284,76.856728 514.332214,76.642838 514.108582,76.103828 
	C514.321106,76.063171 514.609436,76.253250 514.892212,76.709793 
z"/>
<path fill="#69696A" opacity="1.000000" stroke="none" 
	d="
M180.897400,108.735016 
	C180.458527,108.804184 180.357651,108.553291 180.690002,108.127502 
	C180.832031,108.039452 180.944229,108.501785 180.897400,108.735016 
z"/>
<path fill="#69696A" opacity="1.000000" stroke="none" 
	d="
M180.299988,153.057434 
	C180.089417,152.804276 180.235626,152.511520 180.695801,152.144165 
	C180.794128,152.336700 180.676468,152.652802 180.299988,153.057434 
z"/>
<path fill="#696969" opacity="1.000000" stroke="none" 
	d="
M283.078949,152.292358 
	C283.422913,152.132401 283.664764,152.349640 283.887207,152.908615 
	C283.663513,152.953583 283.366516,152.759979 283.078949,152.292358 
z"/>
<path fill="#FFFFFF" opacity="1.000000" stroke="none" 
	d="
M383.694489,93.829712 
	C388.814514,85.608620 396.281891,83.034119 405.011169,84.092812 
	C412.133423,84.956573 416.990173,89.174469 420.360840,95.652580 
	C426.217804,106.909088 426.031372,118.121056 421.092346,129.444870 
	C417.253143,138.247040 408.705750,143.363571 400.602234,142.964355 
	C391.593719,142.520538 383.446564,135.261337 381.004608,127.405815 
	C377.453613,115.982567 377.761902,104.845573 383.694489,93.829712 
z"/>
<path fill="#FFFFFF" opacity="1.000000" stroke="none" 
	d="
M68.445190,140.822540 
	C59.016315,144.298340 47.792023,140.737305 43.189873,132.242462 
	C37.417492,121.587578 36.652214,110.220657 41.622482,99.029930 
	C44.735744,92.020317 49.789955,86.898346 58.123856,85.954178 
	C67.841385,84.853256 74.769150,89.057220 79.441032,97.068329 
	C85.509956,107.474998 84.821732,127.719727 74.518562,136.903824 
	C72.837753,138.402069 70.727531,139.418579 68.445190,140.822540 
z"/>
</svg>